<svg width="259" height="103" viewBox="0 0 259 103" fill="none" xmlns="http://www.w3.org/2000/svg">
<path d="M39.936 33.184V64.288H16.384L39.552 33.184H39.936ZM39.936 79.264V100H57.216V79.264H69.12V64.288H57.216V10.4H40.96L2.048 62.624V79.264H39.936Z" fill="white"/>
<path d="M228.936 33.184V64.288H205.384L228.552 33.184H228.936ZM228.936 79.264V100H246.216V79.264H258.12V64.288H246.216V10.4H229.96L191.048 62.624V79.264H228.936Z" fill="white"/>
<path d="M92.7488 11C95.1071 13.0226 97.0919 14.8467 99.2027 16.5046C103.564 19.9264 108.029 20.8962 113.42 18.3887C124.222 13.309 135.258 13.4937 146.059 18.5688C150.506 20.6607 154.448 20.125 158.378 17.5159C161.1 15.7057 163.463 13.466 165.781 11.1709C166.762 15.1561 164.26 22.1523 159.674 28.0263C168.419 38.061 172.397 49.7628 170.561 63.224C169.026 74.4733 163.855 83.7599 155.155 90.8254C146.892 97.5422 136.441 100.768 125.937 99.8449C115.433 98.9214 105.669 93.9179 98.6402 85.8565C83.5854 68.6824 85.5387 44.092 98.0371 29.7903C100.17 31.0787 102.344 32.4271 104.788 33.2168C107.116 33.957 109.494 34.5158 111.904 34.8885C111.904 35.5997 111.454 35.8121 111.157 36.1169C96.9389 49.6982 99.1262 72.3583 115.905 82.2268C126.301 88.3363 139.821 87.0387 149.241 77.3364C152.693 73.7852 155.133 69.6799 156.24 64.748C158.63 54.1267 156.298 44.8447 148.814 37.0404C144.371 32.4225 141.991 32.4225 137.359 36.9527C134.357 39.922 132.368 43.6395 130.55 47.4492C130.23 48.1235 130.1 48.9131 129.362 49.4211C127.8 46.1239 126.256 42.8867 124.186 39.9497C121.454 36.1076 117.93 33.6278 113.326 32.7873C111.044 32.3625 108.767 31.8638 106.516 31.2819C98.1361 29.0838 94.333 22.9696 93.1718 14.6574C93.0188 13.5583 92.9153 12.4546 92.7488 11Z" fill="#FFFEFE"/>
<path d="M137.769 42.4021C138.552 42.5176 139.241 43.5889 140.154 42.6653C140.919 41.8941 140.307 41.1276 140.195 40.3564C142.445 39.6083 144.277 40.2317 145.388 42.1066C145.935 42.9887 146.168 44.0373 146.048 45.0752C145.928 46.1132 145.463 47.0769 144.731 47.8037C143.999 48.5304 143.044 48.9757 142.029 49.0643C141.014 49.1529 140.001 48.8794 139.16 48.29C137.296 47.02 136.792 44.9096 137.769 42.4021Z" fill="#FFFEFE"/>
<path d="M121.202 42.4388C122.161 44.8955 121.783 46.7566 120.059 48.1235C119.28 48.7335 118.327 49.064 117.347 49.064C116.367 49.064 115.414 48.7335 114.636 48.1235C113.875 47.4954 113.332 46.6317 113.089 45.6613C112.845 44.691 112.914 43.6658 113.285 42.739C114.212 40.5547 115.927 39.7142 118.605 40.1345C118.308 43.0114 118.776 43.4224 121.202 42.4388Z" fill="#FFFEFE"/>
</svg>
