<svg width="20" height="20" viewBox="0 0 499 499" fill="none"
     xmlns="http://www.w3.org/2000/svg">
<g clip-path="url(#clip0_780_2)">
<path d="M293.533 249.333L489.533 53.64C497.429 45.7494 500.507 34.244 497.622 23.4627C494.731 12.6867 486.309 4.26537 475.534 1.3747C464.753 -1.51077 453.247 1.56741 445.357 9.46323L249.663 205.463L53.97 9.46323C46.0793 1.56737 34.574 -1.51077 23.7926 1.3747C13.0166 4.26537 4.59528 12.6872 1.70461 23.4627C-1.18086 34.2439 1.89732 45.7494 9.79315 53.64L205.793 249.333L9.79315 445.027C3.90248 450.87 0.590088 458.824 0.590088 467.115C0.590088 475.412 3.90262 483.365 9.79315 489.203C15.6317 495.093 23.5851 498.406 31.8811 498.406C40.1729 498.406 48.1265 495.093 53.9692 489.203C130.392 412.66 173.239 369.745 249.662 293.203L445.356 489.203C451.2 495.093 459.153 498.406 467.444 498.406C475.741 498.406 483.694 495.093 489.532 489.203C495.422 483.364 498.735 475.411 498.735 467.115C498.735 458.823 495.422 450.869 489.532 445.027L293.533 249.333Z" fill="black"/>
</g>
<defs>
<clipPath id="clip0_780_2">
<rect width="499" height="499" fill="white"/>
</clipPath>
</defs>
</svg>
