<svg width="15" height="16" viewBox="0 0 108 109" fill="none"
     xmlns="http://www.w3.org/2000/svg">
<g clip-path="url(#clip0_788_4)">
<path d="M103.937 13.024H76.6041V6.48057C76.6041 2.93633 73.2044 0.0732422 68.9891 0.0732422H39.0721C34.72 0.0732422 31.4571 2.93658 31.4571 6.48057V13.024H4.12379C1.94778 13.024 0.180664 14.7965 0.180664 16.9769C0.180664 19.1584 1.94878 20.9299 4.12379 20.9299L10.5152 20.9309L16.4988 94.2743C16.4988 102.317 23.1624 108.998 31.3211 108.998H76.7406C84.9003 108.998 91.5629 102.454 91.5629 94.4101L97.5465 20.7941H103.938C106.114 20.7941 107.881 19.0215 107.881 16.8411C107.882 14.6587 106.114 13.023 103.938 13.023L103.937 13.024ZM39.2078 13.16V7.97932H68.8529V13.16H39.2078ZM89.6588 20.7949L83.8119 93.8657V94.1386C83.8119 97.9558 80.548 101.228 76.7403 101.228L31.1849 101.227C27.3772 101.227 24.1133 97.9548 24.1133 94.0016L18.1297 20.7945L89.6588 20.7949Z" fill="black"/>
<path d="M37.848 80.2329C37.848 82.2774 39.6161 84.05 41.7911 84.05C43.9671 84.05 45.7342 82.2775 45.7342 79.96L43.9661 41.7887C43.9661 40.6979 43.5582 39.7442 42.7425 38.9253C41.9267 38.2435 40.9744 37.8346 39.8863 37.9706C38.7983 37.9706 37.8469 38.5155 37.1668 39.1973C36.4867 40.0151 36.0788 41.1058 36.2144 42.0606L37.848 80.2329Z" fill="black"/>
<path d="M66.4052 84.0499C68.5812 84.0499 70.2128 82.5503 70.485 80.3688L72.2531 42.0612C72.2531 40.0167 70.7572 38.2441 68.7177 37.9712H68.5821C66.5427 37.9712 64.7744 39.4708 64.5022 41.6522L62.5975 79.8235C62.4619 80.9143 62.7332 82.005 63.5499 82.8227C64.2291 83.6405 65.1814 84.0504 66.4051 84.0504L66.4052 84.0499Z" fill="black"/>
</g>
<defs>
<clipPath id="clip0_788_4">
<rect width="108" height="109" fill="white"/>
</clipPath>
</defs>
</svg>
