<svg width="20" height="19" viewBox="0 0 20 19" fill="none" xmlns="http://www.w3.org/2000/svg">
<path d="M9.99997 18.1213H19M1 18.1213H2.67454C3.16372 18.1213 3.40832 18.1213 3.63849 18.0661C3.84256 18.0171 4.03765 17.9363 4.2166 17.8266C4.41843 17.7029 4.59138 17.53 4.93729 17.1841L17.5 4.62132C18.3285 3.79289 18.3285 2.44975 17.5 1.62132C16.6716 0.792893 15.3285 0.792894 14.5 1.62132L1.93726 14.1841C1.59136 14.53 1.4184 14.7029 1.29472 14.9047C1.18506 15.0837 1.10425 15.2788 1.05526 15.4829C1 15.713 1 15.9576 1 16.4468V18.1213Z" stroke="#646464" stroke-opacity="0.56" stroke-linecap="round" stroke-linejoin="round"/>
</svg>
