<svg width="30" height="30" viewBox="0 0 30 30" fill="none" xmlns="http://www.w3.org/2000/svg">
<g clip-path="url(#clip0_933_9)">
<path d="M15 26.25C21.2132 26.25 26.25 21.2132 26.25 15C26.25 8.7868 21.2132 3.75 15 3.75C8.7868 3.75 3.75 8.7868 3.75 15C3.75 21.2132 8.7868 26.25 15 26.25Z" stroke="#B5BFD6" stroke-width="1.5" stroke-linecap="round" stroke-linejoin="round"/>
<path d="M11.25 12.5H11.2627" stroke="#B5BFD6" stroke-width="1.5" stroke-linecap="round" stroke-linejoin="round"/>
<path d="M18.75 12.5H18.7627" stroke="#B5BFD6" stroke-width="1.5" stroke-linecap="round" stroke-linejoin="round"/>
<path d="M11.875 18.75C12.2823 19.1657 12.7686 19.496 13.3052 19.7215C13.8418 19.947 14.418 20.0631 15 20.0631C15.582 20.0631 16.1582 19.947 16.6948 19.7215C17.2314 19.496 17.7177 19.1657 18.125 18.75" stroke="#B5BFD6" stroke-width="1.5" stroke-linecap="round" stroke-linejoin="round"/>
</g>
<defs>
<clipPath id="clip0_933_9">
<rect width="30" height="30" fill="white"/>
</clipPath>
</defs>
</svg>
