<svg width="146" height="46" viewBox="0 0 146 46" fill="none" xmlns="http://www.w3.org/2000/svg">
<path d="M48.2725 3.18983C50.7712 3.18983 53.0547 3.22296 55.3382 3.1709C56.0268 3.1567 56.2042 3.51164 56.3699 4.02986C58.4301 10.4803 60.4967 16.9277 62.5695 23.3719C63.6344 26.6847 64.711 29.9975 66.0243 33.3386C66.7721 31.0938 67.5198 28.8474 68.2676 26.5995C70.7474 19.0865 73.2367 11.5783 75.6811 4.05352C75.9367 3.26318 76.2916 3.01236 77.1009 3.05495C78.3616 3.13669 79.6262 3.13669 80.8869 3.05495C81.895 2.97686 82.3067 3.37677 82.6001 4.30435C85.6779 13.7316 88.7817 23.1502 91.9115 32.5601C91.9966 32.8157 92.1102 33.0594 92.3327 33.6108C95.6455 23.2985 98.8825 13.2607 102.113 3.22532H109.685C108.849 5.69336 108.026 8.09277 107.193 10.4874C105.805 14.5054 104.413 18.5226 103.019 22.5389C101.585 26.6847 100.154 30.832 98.7264 34.9809C97.716 37.8961 96.6748 40.7995 95.6975 43.7361C95.4609 44.446 95.1675 44.7512 94.389 44.7157C92.9313 44.6495 91.4713 44.6542 90.0137 44.7015C89.3038 44.7252 89.0128 44.498 88.7785 43.8095C85.7568 34.9004 82.6924 26.0055 79.6541 17.1036C79.4621 16.5413 79.1843 16.0121 78.8306 15.5347C78.0285 17.875 77.2807 20.0472 76.5377 22.2218C74.0862 29.4043 71.6371 36.5891 69.1904 43.7763C68.9703 44.4247 68.6888 44.7228 67.9599 44.6944C66.4621 44.6329 64.9619 44.6235 63.464 44.6944C62.773 44.7228 62.5175 44.4578 62.3092 43.8544C59.017 34.2899 55.7113 24.7293 52.3922 15.1727C51.2074 11.7495 50.0243 8.32545 48.8427 4.90065C48.6653 4.38244 48.5091 3.86422 48.2725 3.18983Z" fill="white"/>
<path d="M2.49673 0C3.73666 1.03643 4.78019 1.97111 5.88998 2.82061C8.18291 4.57403 10.5303 5.07095 13.3651 3.78605C19.0442 1.18314 24.8463 1.27779 30.5254 3.87834C32.8632 4.95027 34.9361 4.67578 37.0019 3.33883C38.4335 2.41124 39.6758 1.2636 40.8944 0.0875525C41.4103 2.12966 40.0946 5.71457 37.6834 8.72449C42.2811 13.8664 44.3729 19.8626 43.4074 26.7603C42.6005 32.5246 39.8816 37.2832 35.3076 40.9036C30.963 44.3454 25.4683 45.9985 19.9458 45.5253C14.4233 45.0521 9.2899 42.4882 5.59419 38.3575C-2.32103 29.5572 -1.29406 16.9568 5.27711 9.62841C6.39873 10.2886 7.54164 10.9796 8.82654 11.3842C10.0502 11.7635 11.3008 12.0498 12.5676 12.2408C12.5676 12.6052 12.331 12.714 12.1748 12.8702C4.69974 19.8295 5.84975 31.4408 14.6713 36.4976C20.1374 39.6282 27.2457 38.9632 32.1983 33.9917C34.0133 32.172 35.2958 30.0684 35.8779 27.5412C37.1344 22.0987 35.9087 17.3425 31.9735 13.3435C29.638 10.9772 28.3862 10.9772 25.9513 13.2985C24.373 14.82 23.3271 16.7249 22.3711 18.6771C22.2031 19.0226 22.1345 19.4272 21.7464 19.6875C20.9253 17.998 20.1137 16.3392 19.0252 14.8342C17.5889 12.8655 15.7361 11.5948 13.3154 11.1641C12.1157 10.9464 10.9183 10.6909 9.73519 10.3927C5.32917 9.26637 3.32966 6.13341 2.71916 1.8741C2.6387 1.31092 2.58428 0.745379 2.49673 0Z" fill="white"/>
<path d="M117.202 29.4628V3.26562H124.23V37.6974L126.473 37.8962L128.099 37.8749H128.844H130.231H146V44.1432L145.636 44.4035H117.458L117.096 44.1384C117.096 42.1034 117.1 40.0692 117.108 38.0358L117.084 36.4717L117.183 30.6222L117.202 29.4628Z" fill="white"/>
<path d="M26.1666 16.0906C26.5784 16.1498 26.9404 16.6988 27.4208 16.2255C27.823 15.8303 27.5012 15.4375 27.4421 15.0424C28.6252 14.659 29.5883 14.9785 30.1728 15.9392C30.46 16.3912 30.5825 16.9285 30.5195 17.4604C30.4564 17.9922 30.2118 18.4861 29.8269 18.8585C29.442 19.2309 28.9404 19.459 28.4067 19.5044C27.8731 19.5498 27.3401 19.4097 26.8978 19.1076C25.9182 18.4569 25.6532 17.3755 26.1666 16.0906Z" fill="white"/>
<path d="M17.4564 16.1099C17.9604 17.3688 17.7617 18.3224 16.8554 19.0228C16.4458 19.3354 15.9449 19.5047 15.4297 19.5047C14.9145 19.5047 14.4135 19.3354 14.004 19.0228C13.6039 18.701 13.3187 18.2584 13.1907 17.7612C13.0628 17.2639 13.0991 16.7387 13.2941 16.2637C13.7816 15.1445 14.6831 14.7138 16.0911 14.9291C15.9349 16.4033 16.181 16.6139 17.4564 16.1099Z" fill="white"/>
</svg>
