<svg width="800" height="800" viewBox="0 0 800 800" fill="none" xmlns="http://www.w3.org/2000/svg">
<path d="M557.5 210C537.5 210 522.5 225 522.5 245C522.5 265 537.5 280 557.5 280C577.5 280 592.5 265 592.5 245C592.5 225 577.5 210 557.5 210Z" fill="white"/>
<path d="M400 255C317.5 255 252.5 322.5 252.5 402.5C252.5 482.5 320 550 400 550C480 550 547.5 482.5 547.5 402.5C547.5 322.5 482.5 255 400 255ZM400 497.5C347.5 497.5 305 455 305 402.5C305 350 347.5 307.5 400 307.5C452.5 307.5 495 350 495 402.5C495 455 452.5 497.5 400 497.5Z" fill="white"/>
<path d="M520 100H282.5C180 100 100 180 100 280V517.5C100 617.5 180 697.5 280 697.5H517.5C617.5 697.5 697.5 617.5 697.5 517.5V280C700 180 620 100 520 100ZM642.5 520C642.5 587.5 587.5 645 517.5 645H280C212.5 645 155 590 155 520V282.5C155 215 210 157.5 280 157.5H517.5C585 157.5 642.5 212.5 642.5 282.5V520Z" fill="white"/>
</svg>
