<svg width="20" height="23" viewBox="0 0 42 36" fill="none"
     xmlns="http://www.w3.org/2000/svg">
<path d="M20.9999 5.5L21.6852 6.22828L21.6852 6.22824L21.6854 6.22811L21.6859 6.22759L21.688 6.22559L21.6962 6.21789L21.7274 6.18854L21.8406 6.08172C21.9356 5.99205 22.0656 5.86914 22.2056 5.73627C22.4791 5.47666 22.8038 5.16657 22.9728 4.99774C25.2496 2.7702 28.2921 1.52295 31.2576 1.52295C33.7175 1.52295 35.8644 2.41633 37.5004 4.05264C39.4524 6.00538 40.4999 8.57247 40.4999 11.3439C40.4999 14.1101 39.4563 16.6729 37.5112 18.6243L21.0687 34.0701L4.62445 18.5726C2.68108 16.6231 1.63743 14.0635 1.63526 11.3003C1.68548 8.51965 2.73767 5.95051 4.68699 4.00046C6.63899 2.04773 9.20493 1 11.975 1C13.8261 1 16.3521 2.23805 19.2167 4.99973C19.3475 5.13142 19.592 5.40464 19.8242 5.66983C19.9377 5.79941 20.0418 5.91962 20.1176 6.00751L20.2072 6.11177L20.2314 6.14004L20.2376 6.14725L20.2391 6.14901L20.2395 6.14941L20.2395 6.14948L20.921 6.94731L21.6852 6.2283L20.9999 5.5Z" stroke="black" stroke-width="2"/>
</svg>
