<svg width="800" height="800" viewBox="0 0 800 800" fill="none" xmlns="http://www.w3.org/2000/svg">
<g clip-path="url(#clip0_558_25)">
<path fill-rule="evenodd" clip-rule="evenodd" d="M199.264 250.312V800H0.015V250.312H199.264ZM499.62 249.297V281.687C528.706 262.914 562.248 252 613.111 252C778.768 252 799.995 380.611 799.995 492.651V799.985H599.745V507.97C599.745 458.859 582.173 449.547 549.683 449.547C518.793 449.547 499.62 459.36 499.62 507.97V799.985H299.37V249.297H499.62ZM99.6246 0C154.593 0 199.249 44.7058 199.249 99.6246C199.249 154.543 154.593 199.249 99.6242 199.249C44.7063 199.249 0 154.543 0 99.6242C0 44.7063 44.7058 0 99.6246 0Z" fill="white"/>
</g>
<defs>
<clipPath id="clip0_558_25">
<rect width="800" height="800" fill="white"/>
</clipPath>
</defs>
</svg>
