<svg width="70" height="73" viewBox="0 0 70 73" fill="none" xmlns="http://www.w3.org/2000/svg">
<path d="M4.00499 0C5.99396 1.65903 7.66788 3.15518 9.44809 4.51498C13.1262 7.32169 16.8916 8.11711 21.4389 6.06037C30.5486 1.89387 39.8558 2.04537 48.9656 6.20809C52.7158 7.92393 56.0409 7.48456 59.3546 5.34449C61.651 3.8597 63.6438 2.02265 65.5986 0.140146C66.426 3.40896 64.3156 9.14737 60.4477 13.9654C67.8229 22.1961 71.1783 31.7942 69.6297 42.8355C68.3353 52.0624 63.974 59.6795 56.6368 65.4747C49.6677 70.9841 40.8535 73.6303 31.995 72.8728C23.1364 72.1153 14.9019 68.0113 8.97362 61.3991C-3.72315 47.3126 -2.0758 27.1429 8.46499 15.4123C10.2642 16.4691 12.0975 17.5751 14.1586 18.2228C16.1215 18.8299 18.1276 19.2882 20.1597 19.5939C20.1597 20.1772 19.7801 20.3515 19.5296 20.6015C7.53883 31.7412 9.38356 50.3276 23.5341 58.422C32.3023 63.4331 43.7047 62.3688 51.6492 54.4108C54.5605 51.498 56.6178 48.1307 57.5516 44.0854C59.5671 35.3736 57.6009 27.7603 51.2886 21.359C47.5422 17.5713 45.5343 17.5713 41.6284 21.2871C39.0967 23.7226 37.4189 26.7717 35.8855 29.8966C35.616 30.4496 35.5059 31.0973 34.8834 31.5139C33.5663 28.8095 32.2643 26.1543 30.5183 23.7453C28.2143 20.5939 25.2422 18.5599 21.3591 17.8705C19.4347 17.522 17.5141 17.113 15.6162 16.6357C8.5485 14.8328 5.34109 9.8178 4.36179 2.99988C4.23273 2.0984 4.14543 1.19314 4.00499 0Z" fill="#FFFEFE"/>
<path d="M41.9737 25.7567C42.6342 25.8514 43.2149 26.7302 43.9855 25.9726C44.6307 25.3401 44.1145 24.7113 44.0196 24.0787C45.9175 23.4651 47.4624 23.9765 48.3999 25.5143C48.8607 26.2379 49.0571 27.0979 48.956 27.9493C48.855 28.8006 48.4626 29.5911 47.8452 30.1872C47.2277 30.7833 46.423 31.1485 45.567 31.2212C44.711 31.2939 43.8561 31.0695 43.1466 30.5861C41.5752 29.5444 41.15 27.8134 41.9737 25.7567Z" fill="#FFFEFE"/>
<path d="M28.0016 25.787C28.81 27.802 28.4912 29.3285 27.0374 30.4497C26.3805 30.9501 25.5769 31.2211 24.7505 31.2211C23.924 31.2211 23.1205 30.9501 22.4636 30.4497C21.8218 29.9345 21.3642 29.2261 21.159 28.4302C20.9538 27.6342 21.012 26.7934 21.3248 26.0332C22.1068 24.2416 23.5529 23.5522 25.8114 23.8969C25.5609 26.2566 25.9556 26.5938 28.0016 25.787Z" fill="#FFFEFE"/>
</svg>
