<svg width="235" height="73" viewBox="0 0 235 73" fill="none" xmlns="http://www.w3.org/2000/svg">
<path d="M77.6934 5.10568C81.7151 5.10568 85.3903 5.15871 89.0656 5.07538C90.1738 5.05265 90.4595 5.62081 90.7261 6.45031C94.042 16.7755 97.3681 27.0957 100.704 37.4108C102.418 42.7136 104.151 48.0163 106.265 53.3645C107.468 49.7713 108.672 46.1755 109.875 42.5772C113.867 30.5513 117.873 18.533 121.807 6.48819C122.219 5.2231 122.79 4.82161 124.092 4.88978C126.121 5.02063 128.157 5.02063 130.186 4.88978C131.808 4.76479 132.471 5.40491 132.943 6.88968C137.897 21.9798 142.892 37.056 147.93 52.1184C148.067 52.5275 148.25 52.9176 148.608 53.8001C153.94 37.2934 159.15 21.2261 164.348 5.1625H176.535C175.191 9.11305 173.866 12.9538 172.525 16.7869C170.291 23.2184 168.051 29.6486 165.807 36.0776C163.499 42.7136 161.196 49.3521 158.898 55.9932C157.272 60.6596 155.596 65.3071 154.023 70.0076C153.643 71.1439 153.17 71.6325 151.917 71.5757C149.571 71.4697 147.221 71.4772 144.875 71.553C143.733 71.5909 143.264 71.2272 142.887 70.125C138.024 55.8644 133.092 41.6265 128.202 27.3773C127.893 26.4773 127.446 25.6302 126.876 24.866C125.585 28.612 124.382 32.0891 123.186 35.57C119.24 47.0669 115.299 58.5676 111.361 70.072C111.006 71.1098 110.553 71.5871 109.38 71.5416C106.969 71.4431 104.555 71.428 102.144 71.5416C101.032 71.5871 100.621 71.1629 100.285 70.197C94.9865 54.8872 89.666 39.5837 84.324 24.2865C82.4172 18.807 80.5129 13.3262 78.6112 7.84418C78.3256 7.01467 78.0742 6.18517 77.6934 5.10568Z" fill="#050505"/>
<path d="M4.01796 0C6.01362 1.659 7.69317 3.15514 9.47936 4.51492C13.1698 7.32159 16.9478 8.117 21.5104 6.06029C30.6508 1.89384 39.9893 2.04535 49.1297 6.20801C52.8925 7.92383 56.2288 7.48446 59.5536 5.34442C61.8577 3.85965 63.8572 2.02262 65.8186 0.140144C66.6488 3.40891 64.5313 9.14725 60.6504 13.9652C68.0504 22.1958 71.4171 31.7938 69.8632 42.8349C68.5645 52.0617 64.1885 59.6787 56.8267 65.4739C49.8341 70.9832 40.9904 73.6293 32.102 72.8719C23.2137 72.1144 14.9515 68.0104 9.0033 61.3983C-3.73615 47.3119 -2.08326 27.1425 8.49296 15.4121C10.2982 16.4688 12.1377 17.5748 14.2057 18.2225C16.1752 18.8296 18.188 19.288 20.227 19.5937C20.227 20.177 19.8461 20.3512 19.5948 20.6012C7.56368 31.7408 9.41462 50.3269 23.6127 58.4212C32.4104 63.4323 43.8511 62.368 51.8223 54.4101C54.7434 51.4973 56.8077 48.1301 57.7445 44.0848C59.7669 35.3732 57.7941 27.7599 51.4605 21.3587C47.7015 17.5711 45.6868 17.5711 41.7679 21.2868C39.2276 23.7223 37.5442 26.7713 36.0056 29.8962C35.7352 30.4492 35.6247 31.0969 35.0002 31.5135C33.6786 28.8091 32.3723 26.1539 30.6204 23.745C28.3086 20.5936 25.3266 18.5596 21.4305 17.8703C19.4995 17.5218 17.5724 17.1127 15.6682 16.6355C8.57674 14.8326 5.35856 9.81767 4.37596 2.99984C4.24647 2.09838 4.15888 1.19312 4.01796 0Z" fill="#050505"/>
<path d="M188.635 47.1605V5.22705H199.947V60.3416L203.557 60.6598L206.173 60.6257H207.373H209.605H234.985V70.6593L234.398 71.0759H189.047L188.464 70.6517C188.464 67.3943 188.47 64.1381 188.483 60.8833L188.445 58.3796L188.605 49.0164L188.635 47.1605Z" fill="#050505"/>
<path d="M42.1143 25.7562C42.7769 25.8509 43.3596 26.7296 44.1328 25.9721C44.7802 25.3395 44.2622 24.7108 44.167 24.0782C46.0713 23.4646 47.6214 23.976 48.5621 25.5138C49.0244 26.2373 49.2215 27.0974 49.1201 27.9487C49.0186 28.8001 48.6249 29.5905 48.0054 30.1866C47.3859 30.7827 46.5785 31.1479 45.7196 31.2206C44.8607 31.2933 44.0029 31.0689 43.2911 30.5855C41.7144 29.5439 41.2878 27.8129 42.1143 25.7562Z" fill="#050505"/>
<path d="M28.0953 25.7865C28.9065 27.8015 28.5866 29.3279 27.1279 30.4491C26.4688 30.9495 25.6625 31.2205 24.8333 31.2205C24.0041 31.2205 23.1978 30.9495 22.5387 30.4491C21.8948 29.9339 21.4356 29.2256 21.2297 28.4296C21.0238 27.6337 21.0822 26.7929 21.3961 26.0327C22.1807 24.2411 23.6317 23.5517 25.8978 23.8964C25.6464 26.2561 26.0425 26.5932 28.0953 25.7865Z" fill="#050505"/>
</svg>
