<svg width="800" height="800" viewBox="0 0 800 800" fill="none" xmlns="http://www.w3.org/2000/svg">
<g clip-path="url(#clip0_558_27)">
<path fill-rule="evenodd" clip-rule="evenodd" d="M800 129.94C770.541 144.01 738.918 153.469 705.741 157.798C739.623 135.916 765.647 101.328 777.93 60.0104C746.165 80.2929 710.965 95.0221 673.6 102.928C643.717 68.5279 600.988 47.0696 553.835 47.0696C463.106 47.0696 389.6 126.222 389.6 223.822C389.6 237.705 391.106 251.163 393.835 264.105C257.458 256.716 136.377 186.41 55.4354 79.4458C41.3646 105.517 33.2233 135.917 33.2233 168.293C33.2233 229.61 71.1529 283.634 115.2 315.399C88.2825 314.457 49.7412 306.457 49.7412 293.187V295.54C49.7412 381.093 97.4121 452.481 172.47 468.81C158.73 472.763 139.812 474.975 124.8 474.975C114.212 474.975 101.694 473.846 91.6233 471.728C112.565 541.94 172.094 593.046 243.906 594.552C187.718 641.846 116.377 670.128 39.4825 670.128C26.2117 670.128 12.8 669.281 0 667.681C72.7058 717.752 158.823 747.069 251.529 747.069C553.6 747.069 718.635 477.846 718.635 244.34C718.635 236.669 718.447 228.952 718.07 221.375C750.165 196.481 778.023 165.375 800 129.94Z" fill="white"/>
</g>
<defs>
<clipPath id="clip0_558_27">
<rect width="800" height="800" fill="white"/>
</clipPath>
</defs>
</svg>
