<svg width="27" height="26" viewBox="0 0 27 26" fill="none" xmlns="http://www.w3.org/2000/svg">
<path d="M3.93946 6.3483V19.4451C3.93946 20.7736 5.01978 21.8535 6.34785 21.8535H18.5328L22.2354 25.1137C22.3479 25.212 22.4899 25.2636 22.6336 25.2636C22.718 25.2636 22.802 25.246 22.8818 25.2099C23.0969 25.1124 23.2359 24.8974 23.2359 24.6613V21.8535H24.4123C25.7408 21.8535 26.8207 20.7731 26.8207 19.4451V6.34829C26.8207 5.0198 25.7404 3.9399 24.4123 3.9399H6.34782C5.02007 3.9399 3.93975 5.0198 3.93975 6.34829L3.93946 6.3483ZM5.14365 6.3483C5.14365 5.68424 5.68381 5.14411 6.34785 5.14411H24.4124C25.0764 5.14411 25.6166 5.68426 25.6166 6.3483V19.4451C25.6166 20.1091 25.0764 20.6493 24.4124 20.6493H22.6335C22.3005 20.6493 22.0312 20.9185 22.0312 21.2516V23.329L19.1582 20.7992C19.0482 20.703 18.9066 20.6493 18.76 20.6493H6.3482C5.68414 20.6493 5.14401 20.1091 5.14401 19.4451L5.14365 6.3483ZM0 2.40884V15.5056C0 16.8341 1.08032 17.914 2.40839 17.914C2.74147 17.914 3.01071 17.6448 3.01071 17.3117C3.01071 16.9786 2.74147 16.7094 2.40839 16.7094C1.74432 16.7094 1.20419 16.1692 1.20419 15.5052V2.40839C1.20419 1.74348 1.74434 1.20419 2.40839 1.20419H20.4729C21.137 1.20419 21.6771 1.74392 21.6771 2.40839C21.6771 2.74147 21.9463 3.01071 22.2794 3.01071C22.6125 3.01071 22.8817 2.74147 22.8817 2.40839C22.8817 1.08064 21.8014 0 20.4734 0H2.40884C1.08034 0.000420108 0 1.08121 0 2.40884Z" fill="black"/>
</svg>
