<svg width="44" height="30" viewBox="0 0 44 30" fill="none" xmlns="http://www.w3.org/2000/svg">
<path d="M9.77638 8.90445V22.0012C9.77638 23.3297 10.8567 24.4096 12.1848 24.4096H24.3697L28.0723 27.6698C28.1849 27.7681 28.3268 27.8198 28.4705 27.8198C28.5549 27.8198 28.6389 27.8021 28.7187 27.766C28.9338 27.6686 29.0728 27.4535 29.0728 27.2175V24.4096H30.2492C31.5777 24.4096 32.6576 23.3293 32.6576 22.0012V8.90444C32.6576 7.57595 31.5773 6.49606 30.2492 6.49606H12.1847C10.857 6.49606 9.77667 7.57595 9.77667 8.90444L9.77638 8.90445ZM10.9806 8.90445C10.9806 8.24039 11.5207 7.70026 12.1848 7.70026H30.2493C30.9133 7.70026 31.4535 8.24041 31.4535 8.90445V22.0012C31.4535 22.6653 30.9133 23.2054 30.2493 23.2054H28.4705C28.1374 23.2054 27.8681 23.4747 27.8681 23.8077V25.8852L24.9951 23.3554C24.8851 23.2592 24.7435 23.2054 24.5969 23.2054H12.1851C11.5211 23.2054 10.9809 22.6653 10.9809 22.0012L10.9806 8.90445ZM5.83691 4.96499V18.0618C5.83691 19.3903 6.91724 20.4702 8.2453 20.4702C8.57839 20.4702 8.84762 20.2009 8.84762 19.8678C8.84762 19.5347 8.57839 19.2655 8.2453 19.2655C7.58124 19.2655 7.04111 18.7254 7.04111 18.0613V4.96454C7.04111 4.29964 7.58126 3.76035 8.2453 3.76035H26.3098C26.9739 3.76035 27.514 4.30008 27.514 4.96454C27.514 5.29763 27.7832 5.56686 28.1163 5.56686C28.4494 5.56686 28.7187 5.29763 28.7187 4.96454C28.7187 3.6368 27.6383 2.55615 26.3103 2.55615H8.24575C6.91726 2.55657 5.83691 3.63736 5.83691 4.96499Z" fill="black"/>
</svg>
