<svg width="38" height="26" viewBox="0 0 38 26" fill="none" xmlns="http://www.w3.org/2000/svg">
<g clip-path="url(#clip0_411_1909)">
<path d="M18.9401 10.7992C15.982 10.7992 13.5757 8.3926 13.5757 5.43474C13.5757 2.47688 15.9823 0.0703125 18.9401 0.0703125C21.8982 0.0703125 24.3045 2.47688 24.3045 5.43474C24.3045 8.3926 21.898 10.7992 18.9401 10.7992ZM18.9401 0.877397C16.4271 0.877397 14.3829 2.9216 14.3829 5.43459C14.3829 7.94758 16.4274 9.99179 18.9401 9.99179C21.4531 9.99179 23.4973 7.94758 23.4973 5.43459C23.4973 2.9216 21.4528 0.877397 18.9401 0.877397Z" fill="black"/>
<path d="M29.9674 9.77766C27.7468 9.77766 25.9404 7.97124 25.9404 5.75064C25.9404 3.52998 27.7471 1.72363 29.9674 1.72363C32.1881 1.72363 33.9945 3.53028 33.9945 5.75064C33.9945 7.97131 32.1878 9.77766 29.9674 9.77766ZM29.9674 2.53079C28.1919 2.53079 26.7476 3.97537 26.7476 5.75064C26.7476 7.52622 28.1922 8.9705 29.9674 8.9705C31.743 8.9705 33.1873 7.52592 33.1873 5.75064C33.1873 3.97507 31.7427 2.53079 29.9674 2.53079Z" fill="black"/>
<path d="M9.84491 20.4525H3.33863C3.31442 20.4525 3.2902 20.4502 3.26627 20.4458C1.77351 20.1746 0.690186 18.8764 0.690186 17.3592V16.0172C0.690186 12.1317 3.85122 8.9707 7.73668 8.9707C10.1127 8.9707 12.3132 10.157 13.6232 12.1438C13.7382 12.3183 13.701 12.552 13.5373 12.6821C11.4469 14.3429 10.2483 16.8244 10.2483 19.4902V20.0489C10.2485 20.2717 10.0677 20.4525 9.84491 20.4525ZM3.37642 19.6452H9.44136V19.4901C9.44136 16.7036 10.6394 14.1018 12.7423 12.2923C11.5655 10.7113 9.72018 9.77788 7.73679 9.77788C4.29642 9.77788 1.49745 12.5768 1.49745 16.0172V17.3592C1.49745 18.4746 2.28564 19.4302 3.37649 19.6453L3.37642 19.6452Z" fill="black"/>
<path d="M34.3658 20.4523H28.0346C27.8117 20.4523 27.631 20.2715 27.631 20.0487V19.49C27.631 16.9323 26.5107 14.5153 24.5575 12.8591C24.4604 12.7767 24.354 12.691 24.232 12.5973C24.0622 12.467 24.0242 12.2266 24.1447 12.0499C25.461 10.1218 27.6375 8.9707 29.9674 8.9707C33.8529 8.9707 37.0139 12.1317 37.0139 16.0172V17.3592C37.0139 18.8765 35.9305 20.1745 34.4378 20.4458C34.4142 20.4499 34.39 20.4522 34.3658 20.4522L34.3658 20.4523ZM28.4385 19.645H34.3281C35.419 19.43 36.2072 18.4743 36.2072 17.3589V16.0169C36.2072 12.5765 33.4082 9.77757 29.9678 9.77757C28.0297 9.77757 26.2112 10.6773 25.0315 12.2023C25.048 12.2161 25.0641 12.2297 25.0803 12.2432C27.2144 14.0533 28.4388 16.6946 28.4388 19.4896L28.4385 19.645Z" fill="black"/>
<path d="M24.9614 25.413H12.9179C12.8937 25.413 12.8695 25.4107 12.8458 25.4064C10.8731 25.0478 9.44116 23.3322 9.44116 21.3272V19.4899C9.44116 16.5765 10.7511 13.8646 13.0352 12.0501C14.7297 10.7035 16.7713 9.9917 18.9395 9.9917C21.0515 9.9917 23.0516 10.6715 24.724 11.9575C24.8563 12.0593 24.9728 12.153 25.0797 12.2438C27.2139 14.0539 28.4382 16.6952 28.4382 19.4901V21.3274C28.4382 23.3324 27.0064 25.0483 25.0336 25.4066C25.0097 25.4109 24.9854 25.4132 24.9612 25.4132L24.9614 25.413ZM12.9555 24.6058H24.9238C26.4946 24.3034 27.6308 22.93 27.6308 21.3271V19.4898C27.6308 16.9322 26.5105 14.5152 24.5574 12.859C24.4602 12.7765 24.3538 12.6909 24.2319 12.5972C22.702 11.4208 20.8723 10.7989 18.9396 10.7989C16.9556 10.7989 15.0875 11.4499 13.5374 12.682C11.4471 14.3428 10.2484 16.8244 10.2484 19.4901V21.3274C10.2484 22.93 11.3846 24.3034 12.9554 24.6058L12.9555 24.6058Z" fill="black"/>
<path d="M7.73722 9.77766C5.51655 9.77766 3.71021 7.97124 3.71021 5.75064C3.71021 3.52998 5.51663 1.72363 7.73722 1.72363C9.95788 1.72363 11.7642 3.53028 11.7642 5.75064C11.7645 7.97131 9.95781 9.77766 7.73722 9.77766ZM7.73722 2.53079C5.96164 2.53079 4.51736 3.97537 4.51736 5.75064C4.51736 7.52622 5.96164 8.9705 7.73722 8.9705C9.51279 8.9705 10.9571 7.52592 10.9571 5.75064C10.9571 3.97507 9.51279 2.53079 7.73722 2.53079Z" fill="black"/>
</g>
<defs>
<clipPath id="clip0_411_1909">
<rect width="38" height="26" fill="white"/>
</clipPath>
</defs>
</svg>
