<svg width="41" height="30" viewBox="0 0 41 30" fill="none" xmlns="http://www.w3.org/2000/svg">
<path d="M19.9401 12.7992C16.982 12.7992 14.5757 10.3926 14.5757 7.43474C14.5757 4.47688 16.9823 2.07031 19.9401 2.07031C22.8982 2.07031 25.3045 4.47688 25.3045 7.43474C25.3045 10.3926 22.898 12.7992 19.9401 12.7992ZM19.9401 2.8774C17.4271 2.8774 15.3829 4.9216 15.3829 7.43459C15.3829 9.94758 17.4274 11.9918 19.9401 11.9918C22.4531 11.9918 24.4973 9.94758 24.4973 7.43459C24.4973 4.9216 22.4528 2.8774 19.9401 2.8774Z" fill="black"/>
<path d="M30.9674 11.7777C28.7468 11.7777 26.9404 9.97124 26.9404 7.75064C26.9404 5.52998 28.7471 3.72363 30.9674 3.72363C33.1881 3.72363 34.9945 5.53028 34.9945 7.75064C34.9945 9.97131 33.1878 11.7777 30.9674 11.7777ZM30.9674 4.53079C29.1919 4.53079 27.7476 5.97537 27.7476 7.75064C27.7476 9.52622 29.1922 10.9705 30.9674 10.9705C32.743 10.9705 34.1873 9.52592 34.1873 7.75064C34.1873 5.97507 32.7427 4.53079 30.9674 4.53079Z" fill="black"/>
<path d="M10.8449 22.4525H4.33863C4.31442 22.4525 4.2902 22.4502 4.26627 22.4458C2.77351 22.1746 1.69019 20.8764 1.69019 19.3592V18.0172C1.69019 14.1317 4.85122 10.9707 8.73668 10.9707C11.1127 10.9707 13.3132 12.157 14.6232 14.1438C14.7382 14.3183 14.701 14.552 14.5373 14.6821C12.4469 16.3429 11.2483 18.8244 11.2483 21.4902V22.0489C11.2485 22.2717 11.0677 22.4525 10.8449 22.4525ZM4.37642 21.6452H10.4414V21.4901C10.4414 18.7036 11.6394 16.1018 13.7423 14.2923C12.5655 12.7113 10.7202 11.7779 8.73679 11.7779C5.29642 11.7779 2.49745 14.5768 2.49745 18.0172V19.3592C2.49745 20.4746 3.28564 21.4302 4.37649 21.6453L4.37642 21.6452Z" fill="black"/>
<path d="M35.3658 22.4523H29.0346C28.8117 22.4523 28.631 22.2715 28.631 22.0487V21.49C28.631 18.9323 27.5107 16.5153 25.5575 14.8591C25.4604 14.7767 25.354 14.691 25.232 14.5973C25.0622 14.467 25.0242 14.2266 25.1447 14.0499C26.461 12.1218 28.6375 10.9707 30.9674 10.9707C34.8529 10.9707 38.0139 14.1317 38.0139 18.0172V19.3592C38.0139 20.8765 36.9305 22.1745 35.4378 22.4458C35.4142 22.4499 35.39 22.4522 35.3658 22.4522L35.3658 22.4523ZM29.4385 21.645H35.3281C36.419 21.43 37.2072 20.4743 37.2072 19.3589V18.0169C37.2072 14.5765 34.4082 11.7776 30.9678 11.7776C29.0297 11.7776 27.2112 12.6773 26.0315 14.2023C26.048 14.2161 26.0641 14.2297 26.0803 14.2432C28.2144 16.0533 29.4388 18.6946 29.4388 21.4896L29.4385 21.645Z" fill="black"/>
<path d="M25.9614 27.413H13.9179C13.8937 27.413 13.8695 27.4107 13.8458 27.4064C11.8731 27.0478 10.4412 25.3322 10.4412 23.3272V21.4899C10.4412 18.5765 11.7511 15.8646 14.0352 14.0501C15.7297 12.7035 17.7713 11.9917 19.9395 11.9917C22.0515 11.9917 24.0516 12.6715 25.724 13.9575C25.8563 14.0593 25.9728 14.153 26.0797 14.2438C28.2139 16.0539 29.4382 18.6952 29.4382 21.4901V23.3274C29.4382 25.3324 28.0064 27.0483 26.0336 27.4066C26.0097 27.4109 25.9854 27.4132 25.9612 27.4132L25.9614 27.413ZM13.9555 26.6058H25.9238C27.4946 26.3034 28.6308 24.93 28.6308 23.3271V21.4898C28.6308 18.9322 27.5105 16.5152 25.5574 14.859C25.4602 14.7765 25.3538 14.6909 25.2319 14.5972C23.702 13.4208 21.8723 12.7989 19.9396 12.7989C17.9556 12.7989 16.0875 13.4499 14.5374 14.682C12.4471 16.3428 11.2484 18.8244 11.2484 21.4901V23.3274C11.2484 24.93 12.3846 26.3034 13.9554 26.6058L13.9555 26.6058Z" fill="black"/>
<path d="M8.73722 11.7777C6.51655 11.7777 4.71021 9.97124 4.71021 7.75064C4.71021 5.52998 6.51663 3.72363 8.73722 3.72363C10.9579 3.72363 12.7642 5.53028 12.7642 7.75064C12.7645 9.97131 10.9578 11.7777 8.73722 11.7777ZM8.73722 4.53079C6.96164 4.53079 5.51736 5.97537 5.51736 7.75064C5.51736 9.52622 6.96164 10.9705 8.73722 10.9705C10.5128 10.9705 11.9571 9.52592 11.9571 7.75064C11.9571 5.97507 10.5128 4.53079 8.73722 4.53079Z" fill="black"/>
</svg>
