<svg width="33" height="30" viewBox="0 0 33 30" fill="none" xmlns="http://www.w3.org/2000/svg">
<path d="M23.6283 2.9837H7.34253C5.56723 2.9837 4.12305 4.4281 4.12305 6.20317V22.4897C4.12305 24.265 5.56745 25.7092 7.34253 25.7092H23.6291C25.4044 25.7092 26.8486 24.2648 26.8486 22.4897L26.8489 6.20317C26.8483 4.42788 25.4042 2.9834 23.6289 2.9834L23.6283 2.9837ZM7.34253 3.81974H23.6291C24.9438 3.81974 26.0128 4.88929 26.0128 6.2034V18.8415L21.4383 14.1857C21.1626 13.9053 20.7994 13.7645 20.4006 13.7586C20.0073 13.7636 19.643 13.9251 19.3748 14.2128L16.7427 17.0358C16.62 17.1676 16.445 17.2352 16.2666 17.223C16.0871 17.2101 15.9253 17.118 15.8224 16.9702L11.8514 11.2586C11.6019 10.9001 11.2086 10.6774 10.7728 10.6488C10.3408 10.6217 9.91812 10.7879 9.62372 11.1111L4.95894 16.2179V6.20367C4.95894 4.88927 6.0279 3.82002 7.3426 3.82002L7.34253 3.81974ZM23.6283 24.8735H7.34253C6.02782 24.8735 4.95887 23.8039 4.95887 22.4898V17.3682L5.00289 17.4085L10.2405 11.673C10.3629 11.5392 10.5323 11.4704 10.7177 11.4812C10.8987 11.4935 11.0617 11.5856 11.1649 11.734L15.1358 17.4455C15.3836 17.802 15.774 18.0239 16.2069 18.0548C16.6418 18.0857 17.0578 17.9216 17.354 17.6044L19.9861 14.7811C20.0977 14.6616 20.2484 14.5948 20.412 14.5925H20.4204C20.5805 14.5925 20.73 14.6552 20.8428 14.7697L26.0131 20.0324V22.489C26.0125 23.8043 24.9435 24.8736 23.6288 24.8736L23.6283 24.8735Z" fill="black"/>
<path d="M22.0061 11.1338C22.866 11.1338 23.5654 10.4342 23.5654 9.57447C23.5654 8.71476 22.8658 8.01514 22.0061 8.01514C21.1464 8.01514 20.4468 8.71476 20.4468 9.57447C20.4468 10.4342 21.1461 11.1338 22.0061 11.1338ZM22.0061 8.85066C22.4052 8.85066 22.7296 9.17541 22.7296 9.57419C22.7296 9.97297 22.4055 10.2977 22.0061 10.2977C21.607 10.2977 21.2826 9.97297 21.2826 9.57419C21.2826 9.17541 21.6064 8.85066 22.0061 8.85066Z" fill="black"/>
</svg>
