<svg width="23" height="24" viewBox="0 0 23 24" fill="none" xmlns="http://www.w3.org/2000/svg">
<g clip-path="url(#clip0_411_1902)">
<path d="M19.6283 0.983697H3.34253C1.56723 0.983697 0.123047 2.4281 0.123047 4.20317V20.4897C0.123047 22.265 1.56745 23.7092 3.34253 23.7092H19.6291C21.4044 23.7092 22.8486 22.2648 22.8486 20.4897L22.8489 4.20317C22.8483 2.42788 21.4042 0.983398 19.6289 0.983398L19.6283 0.983697ZM3.34253 1.81974H19.6291C20.9438 1.81974 22.0128 2.88929 22.0128 4.2034V16.8415L17.4383 12.1857C17.1626 11.9053 16.7994 11.7645 16.4006 11.7586C16.0073 11.7636 15.643 11.9251 15.3748 12.2128L12.7427 15.0358C12.62 15.1676 12.445 15.2352 12.2666 15.223C12.0871 15.2101 11.9253 15.118 11.8224 14.9702L7.85141 9.25864C7.60187 8.90009 7.20862 8.67737 6.77282 8.6488C6.3408 8.62169 5.91812 8.78785 5.62372 9.11114L0.958943 14.2179V4.20367C0.958943 2.88927 2.0279 1.82002 3.3426 1.82002L3.34253 1.81974ZM19.6283 22.8735H3.34253C2.02782 22.8735 0.958869 21.8039 0.958869 20.4898V15.3682L1.00289 15.4085L6.2405 9.67303C6.36293 9.53922 6.5323 9.47043 6.7177 9.48122C6.89873 9.49346 7.06168 9.58557 7.16488 9.73395L11.1358 15.4455C11.3836 15.802 11.774 16.0239 12.2069 16.0548C12.6418 16.0857 13.0578 15.9216 13.354 15.6044L15.9861 12.7811C16.0977 12.6616 16.2484 12.5948 16.412 12.5925H16.4204C16.5805 12.5925 16.73 12.6552 16.8428 12.7697L22.013 18.0324V20.489C22.0125 21.8043 20.9435 22.8736 19.6288 22.8736L19.6283 22.8735Z" fill="black"/>
<path d="M18.0061 9.13379C18.866 9.13379 19.5654 8.43417 19.5654 7.57447C19.5654 6.71476 18.8658 6.01514 18.0061 6.01514C17.1464 6.01514 16.4468 6.71476 16.4468 7.57447C16.4468 8.43417 17.1461 9.13379 18.0061 9.13379ZM18.0061 6.85066C18.4052 6.85066 18.7296 7.17541 18.7296 7.57419C18.7296 7.97297 18.4055 8.29772 18.0061 8.29772C17.607 8.29772 17.2826 7.97297 17.2826 7.57419C17.2826 7.17541 17.6064 6.85066 18.0061 6.85066Z" fill="black"/>
</g>
<defs>
<clipPath id="clip0_411_1902">
<rect width="23" height="24" fill="white"/>
</clipPath>
</defs>
</svg>
