<svg width="35" height="30" viewBox="0 0 35 30" fill="none" xmlns="http://www.w3.org/2000/svg">
<path d="M3.99044 1.37844C2.76547 1.37844 1.7749 2.368 1.7749 3.59398V25.4934C1.7749 26.692 2.72245 27.6605 3.90912 27.7044H3.92337L3.93761 27.7066C3.96832 27.7098 3.98601 27.7111 3.99043 27.7111H30.3735C32.2445 27.7111 33.7579 26.1955 33.7579 24.3244V11.4955C33.7579 10.2705 32.7717 9.28313 31.5446 9.28218H31.5424C31.2761 9.28317 31.0714 9.48806 31.0714 9.75315C31.0714 10.0185 31.2773 10.2241 31.5446 10.2241C32.2413 10.2241 32.8147 10.7997 32.8147 11.4942V24.3232C32.8147 25.6648 31.7163 26.7676 30.3724 26.7676C29.0286 26.7676 27.9302 25.666 27.9302 24.3232V3.59298C27.9302 2.36681 26.9406 1.37744 25.7124 1.37744L3.99044 1.37844ZM3.99044 2.32505H25.7156C26.4123 2.32505 26.9857 2.90066 26.9857 3.59517V24.3254C26.9857 24.9329 27.1454 25.4987 27.427 25.9928L27.8704 26.7676H3.9899C3.29317 26.7676 2.72097 26.1898 2.72097 25.4953V3.59593C2.72097 2.9014 3.29437 2.3258 3.9899 2.3258L3.99044 2.32505ZM11.5779 9.68731C11.3103 9.68731 11.1047 9.89196 11.1047 10.1583C11.1047 10.4246 11.3116 10.6314 11.5779 10.6314H21.8841C22.1505 10.6314 22.3551 10.4256 22.3551 10.1583C22.3551 9.89073 22.1514 9.68731 21.8841 9.68731H11.5779ZM8.01849 14.6158C7.75095 14.6158 7.54532 14.8205 7.54532 15.0868C7.54532 15.3531 7.75218 15.5599 8.01849 15.5599H21.8833C22.1496 15.5599 22.3542 15.3541 22.3542 15.0868C22.3542 14.8192 22.1506 14.6158 21.8833 14.6158H8.01849ZM8.01849 19.5423C7.75217 19.5423 7.54532 19.7492 7.54532 20.0155C7.54532 20.2818 7.75119 20.4865 8.01849 20.4865H21.8833C22.1508 20.4865 22.3542 20.2828 22.3542 20.0155C22.3542 19.748 22.1496 19.5423 21.8833 19.5423H8.01849Z" fill="black"/>
</svg>
