<svg width="33" height="27" viewBox="0 0 33 27" fill="none" xmlns="http://www.w3.org/2000/svg">
<g clip-path="url(#clip0_411_1900)">
<path d="M2.99044 0.378443C1.76547 0.378443 0.774902 1.368 0.774902 2.59398V24.4934C0.774902 25.692 1.72245 26.6605 2.90912 26.7044H2.92337L2.93761 26.7066C2.96832 26.7098 2.98601 26.7111 2.99043 26.7111H29.3735C31.2445 26.7111 32.7579 25.1955 32.7579 23.3244V10.4955C32.7579 9.27049 31.7717 8.28313 30.5446 8.28218H30.5424C30.2761 8.28317 30.0714 8.48806 30.0714 8.75315C30.0714 9.01848 30.2773 9.22411 30.5446 9.22411C31.2413 9.22411 31.8147 9.79972 31.8147 10.4942V23.3232C31.8147 24.6648 30.7163 25.7676 29.3724 25.7676C28.0286 25.7676 26.9302 24.666 26.9302 23.3232V2.59298C26.9302 1.36681 25.9406 0.377441 24.7124 0.377441L2.99044 0.378443ZM2.99044 1.32505H24.7156C25.4123 1.32505 25.9857 1.90066 25.9857 2.59517V23.3254C25.9857 23.9329 26.1454 24.4987 26.427 24.9928L26.8704 25.7676H2.9899C2.29317 25.7676 1.72097 25.1898 1.72097 24.4953V2.59593C1.72097 1.9014 2.29437 1.3258 2.9899 1.3258L2.99044 1.32505ZM10.5779 8.68731C10.3103 8.68731 10.1047 8.89196 10.1047 9.15827C10.1047 9.42459 10.3116 9.63144 10.5779 9.63144H20.8841C21.1505 9.63144 21.3551 9.42557 21.3551 9.15827C21.3551 8.89073 21.1514 8.68731 20.8841 8.68731H10.5779ZM7.01849 13.6158C6.75095 13.6158 6.54532 13.8205 6.54532 14.0868C6.54532 14.3531 6.75218 14.5599 7.01849 14.5599H20.8833C21.1496 14.5599 21.3542 14.3541 21.3542 14.0868C21.3542 13.8192 21.1506 13.6158 20.8833 13.6158H7.01849ZM7.01849 18.5423C6.75217 18.5423 6.54532 18.7492 6.54532 19.0155C6.54532 19.2818 6.75119 19.4865 7.01849 19.4865H20.8833C21.1508 19.4865 21.3542 19.2828 21.3542 19.0155C21.3542 18.748 21.1496 18.5423 20.8833 18.5423H7.01849Z" fill="black"/>
</g>
<defs>
<clipPath id="clip0_411_1900">
<rect width="33" height="27" fill="white"/>
</clipPath>
</defs>
</svg>
