<svg width="29" height="30" viewBox="0 0 29 30" fill="none" xmlns="http://www.w3.org/2000/svg">
<path d="M13.823 1.73014C16.7461 1.73014 19.1153 4.09943 19.1153 7.02245C19.1153 9.94547 16.7461 12.3148 13.823 12.3148C10.9 12.3148 8.56161 9.91476 8.56161 6.99174C8.56161 4.06871 10.9309 1.73014 13.823 1.73014ZM13.823 0.837891C10.4077 0.837891 7.66919 3.60701 7.66919 6.99174C7.66919 10.3765 10.4383 13.1456 13.823 13.1456C17.2078 13.1456 19.9769 10.3765 19.9769 6.99174C19.9769 3.60701 17.2384 0.837891 13.823 0.837891Z" fill="#000200"/>
<path d="M13.7922 15.0534C19.5153 15.0534 24.1922 19.8533 24.1922 25.7918C24.1922 25.9148 24.1615 27.0841 24.0999 27.3303C24.0692 27.4842 23.946 27.6381 23.7921 27.6381L3.7306 27.6074C3.57671 27.6074 3.45372 27.4844 3.42282 27.2996C3.36122 26.9918 3.33052 26.038 3.33052 25.9457C3.36143 20.0072 8.13069 15.0534 13.7921 15.0534M13.7921 14.1612C7.66899 14.1612 2.49976 19.5151 2.49976 25.915C2.49976 26.1919 2.53045 26.7766 2.59205 27.2689V27.2996C2.62274 27.9459 3.17672 28.438 3.79205 28.438L23.8536 28.4687C24.4689 28.4687 24.992 27.9457 25.0536 27.3303C25.1459 26.6534 25.1459 25.9148 25.1459 25.7611C25.0843 19.3611 20.0381 14.1611 13.792 14.1611L13.7921 14.1612Z" fill="#000200"/>
</svg>
