<svg width="24" height="29" viewBox="0 0 24 29" fill="none" xmlns="http://www.w3.org/2000/svg">
<g clip-path="url(#clip0_411_1917)">
<path d="M11.823 1.73014C14.7461 1.73014 17.1153 4.09943 17.1153 7.02245C17.1153 9.94547 14.7461 12.3148 11.823 12.3148C8.90001 12.3148 6.56161 9.91476 6.56161 6.99174C6.56161 4.06871 8.93089 1.73014 11.823 1.73014ZM11.823 0.837891C8.40765 0.837891 5.66919 3.60701 5.66919 6.99174C5.66919 10.3765 8.43831 13.1456 11.823 13.1456C15.2078 13.1456 17.9769 10.3765 17.9769 6.99174C17.9769 3.60701 15.2384 0.837891 11.823 0.837891Z" fill="#000200"/>
<path d="M11.7922 15.0534C17.5153 15.0534 22.1922 19.8533 22.1922 25.7918C22.1922 25.9148 22.1615 27.0841 22.0999 27.3303C22.0692 27.4842 21.946 27.6381 21.7921 27.6381L1.7306 27.6074C1.57671 27.6074 1.45372 27.4844 1.42282 27.2996C1.36122 26.9918 1.33052 26.038 1.33052 25.9457C1.36143 20.0072 6.13069 15.0534 11.7921 15.0534M11.7921 14.1612C5.66899 14.1612 0.499756 19.5151 0.499756 25.915C0.499756 26.1919 0.530447 26.7766 0.592046 27.2689V27.2996C0.622738 27.9459 1.17672 28.438 1.79205 28.438L21.8536 28.4687C22.4689 28.4687 22.992 27.9457 23.0536 27.3303C23.1459 26.6534 23.1459 25.9148 23.1459 25.7611C23.0843 19.3611 18.0381 14.1611 11.792 14.1611L11.7921 14.1612Z" fill="#000200"/>
</g>
<defs>
<clipPath id="clip0_411_1917">
<rect width="24" height="29" fill="white"/>
</clipPath>
</defs>
</svg>
