<svg width="30" height="30" viewBox="0 0 30 30" fill="none" xmlns="http://www.w3.org/2000/svg">
<path d="M27.7845 18.3051C27.8212 18.2037 27.901 18.1237 28.0024 18.0872L29.2372 17.6514V17.6512C29.4479 17.5767 29.6308 17.4391 29.7606 17.2572C29.8905 17.0753 29.9615 16.858 29.9635 16.6343V13.3657C29.9615 13.142 29.8905 12.9246 29.7606 12.7427C29.6308 12.5608 29.4479 12.4232 29.2372 12.3487L28.0024 11.913V11.9127C27.901 11.8763 27.8212 11.7962 27.7845 11.6949L26.368 8.28077C26.3275 8.1883 26.3275 8.08291 26.368 7.99044L26.9127 6.7919C27.008 6.58872 27.0381 6.36096 26.9991 6.13977C26.9601 5.91886 26.8539 5.71517 26.6948 5.55683L24.4431 3.2689C24.2848 3.10981 24.0811 3.0034 23.8602 2.96438C23.639 2.92537 23.4112 2.95552 23.208 3.05103L22.0095 3.59571C21.917 3.63625 21.8116 3.63625 21.7192 3.59571L18.3051 2.17926C18.2037 2.14252 18.1237 2.06272 18.0872 1.96138L17.6514 0.726588H17.6512C17.5767 0.515806 17.4391 0.332893 17.2572 0.202928C17.0753 0.0729631 16.858 0.00227644 16.6343 0H13.3657C13.142 0.00228008 12.9246 0.0729631 12.7427 0.202928C12.5608 0.332893 12.4232 0.515806 12.3487 0.726588L11.913 1.96138H11.9127C11.8763 2.06272 11.7962 2.14252 11.6949 2.17926L8.28077 3.59571C8.1883 3.63625 8.08291 3.63625 7.99044 3.59571L6.7919 3.05103C6.58872 2.95551 6.36096 2.92537 6.13977 2.96438C5.91886 3.0034 5.71517 3.10981 5.55683 3.2689L3.2689 5.55683C3.1098 5.71517 3.0034 5.91885 2.96438 6.13977C2.92537 6.36094 2.95552 6.5887 3.05103 6.7919L3.59571 7.99044C3.63625 8.08291 3.63625 8.1883 3.59571 8.28077L2.17926 11.6949C2.14252 11.7962 2.06272 11.8763 1.96138 11.9127L0.726588 12.3485V12.3487C0.515806 12.4232 0.332893 12.5608 0.202928 12.7427C0.0729629 12.9246 0.00227644 13.142 0 13.3657V16.5981C0.00228008 16.8215 0.0729629 17.0392 0.202928 17.2211C0.332893 17.403 0.515806 17.5405 0.726588 17.615L1.96138 18.0508C2.06272 18.0875 2.14252 18.1673 2.17926 18.2686L3.59571 21.6827C3.63625 21.7754 3.63625 21.8806 3.59571 21.9733L3.05103 23.1718C2.95551 23.375 2.92537 23.6028 2.96438 23.8237C3.0034 24.0449 3.1098 24.2483 3.2689 24.4067L5.55683 26.7311C5.71517 26.8902 5.91885 26.9966 6.13977 27.0356C6.36094 27.0746 6.5887 27.0445 6.7919 26.949L7.99044 26.4043C8.08291 26.3638 8.1883 26.3638 8.28077 26.4043L11.6949 27.8207C11.7962 27.8575 11.8763 27.9373 11.9127 28.0386L12.3485 29.2734H12.3487C12.4232 29.4842 12.5608 29.6671 12.7427 29.7971C12.9246 29.927 13.142 29.9977 13.3657 30H16.5981C16.8215 29.9977 17.0392 29.927 17.2211 29.7971C17.403 29.6671 17.5405 29.4842 17.615 29.2734L18.0508 28.0386C18.0875 27.9373 18.1673 27.8575 18.2686 27.8207L21.6827 26.4043C21.7754 26.3638 21.8806 26.3638 21.9733 26.4043L23.1718 26.949C23.375 27.0445 23.6028 27.0746 23.8237 27.0356C24.0449 26.9966 24.2483 26.8902 24.4067 26.7311L26.7311 24.4432C26.8902 24.2848 26.9966 24.0811 27.0356 23.8602C27.0746 23.6391 27.0445 23.4113 26.949 23.2081L26.4043 22.0096C26.3638 21.9171 26.3638 21.8117 26.4043 21.7192L27.7845 18.3051ZM25.7142 22.3365L26.2588 23.5351H26.2591C26.3184 23.6706 26.2897 23.8284 26.1864 23.9346L23.8982 26.2228V26.2225C23.7923 26.3259 23.6342 26.3548 23.4987 26.2952L22.3001 25.7505C22.0273 25.6175 21.7116 25.6044 21.4286 25.7141L18.0145 27.1305C17.7242 27.2493 17.4992 27.4877 17.3971 27.7844L16.9614 29.0192H16.9611C16.916 29.1638 16.7858 29.2652 16.6343 29.2733H13.3657C13.2142 29.2652 13.084 29.1638 13.0389 29.0192L12.6031 27.7844H12.6029C12.5008 27.4877 12.2758 27.2493 11.9855 27.1305L8.57139 25.7141L8.17186 25.6414L7.69963 25.7503L6.50109 26.295L6.50135 26.2952C6.36581 26.3548 6.20772 26.3259 6.10182 26.2225L3.81364 23.9343V23.9346C3.71027 23.8284 3.68164 23.6706 3.74093 23.5351L4.28561 22.3365H4.28587C4.41887 22.0637 4.43204 21.7478 4.32209 21.4648L2.90564 18.0507C2.78682 17.7604 2.54868 17.5354 2.25202 17.4333L1.01723 16.9976H1.01697C0.872313 16.9522 0.770975 16.822 0.762868 16.6707V13.3656C0.770975 13.2141 0.872313 13.0839 1.01697 13.0388L2.25177 12.6031L2.25202 12.6028C2.54868 12.5007 2.78683 12.2757 2.90564 11.9854L4.32209 8.57132C4.43204 8.28833 4.41887 7.97267 4.28587 7.69979L3.74118 6.50125H3.74093C3.68164 6.36571 3.71027 6.20763 3.81364 6.10172L6.10182 3.81354C6.20772 3.71017 6.3658 3.68154 6.50135 3.74083L7.69988 4.28551V4.28577C7.97273 4.41878 8.2884 4.43195 8.57142 4.322L11.9855 2.90554C12.2758 2.78673 12.5008 2.54858 12.6029 2.25192L13.0387 1.01713L13.0389 1.01688C13.084 0.872216 13.2142 0.770878 13.3657 0.762771H16.5981C16.7494 0.770878 16.8799 0.872216 16.925 1.01688L17.3607 2.25167V2.25192C17.4628 2.54859 17.688 2.78673 17.9784 2.90554L21.3924 4.322H21.3922C21.6752 4.43195 21.9911 4.41877 22.2639 4.28577L23.4625 3.74108V3.74083C23.598 3.68155 23.7561 3.71017 23.862 3.81354L26.1502 6.10172C26.2533 6.20762 26.2822 6.36571 26.2226 6.50125L25.6779 7.69979C25.5449 7.97264 25.5318 8.2883 25.6415 8.57132L27.0579 11.9854H27.0582C27.177 12.2757 27.4151 12.5007 27.7118 12.6028L28.9466 13.0386V13.0388C29.0912 13.0839 29.1926 13.2141 29.2009 13.3656V16.598C29.1926 16.7493 29.0912 16.8798 28.9466 16.9249L27.7118 17.3606C27.4151 17.4627 27.177 17.6879 27.0582 17.9783L25.6417 21.3923L25.6415 21.3921C25.5206 21.7017 25.5472 22.0493 25.7142 22.3365Z" fill="black"/>
<path d="M15.0002 6.68311C12.7943 6.68311 10.6789 7.55918 9.11903 9.11903C7.55918 10.6789 6.68311 12.7943 6.68311 15.0002C6.68311 17.2061 7.55918 19.3215 9.11903 20.8813C10.6789 22.4412 12.7943 23.3172 15.0002 23.3172C17.2061 23.3172 19.3215 22.4412 20.8813 20.8813C22.4412 19.3215 23.3172 17.2061 23.3172 15.0002C23.3172 12.7943 22.4412 10.6789 20.8813 9.11903C19.3215 7.55918 17.2061 6.68311 15.0002 6.68311ZM15.0002 22.5547C12.9848 22.5547 11.0523 21.7531 9.62854 20.327C8.2045 18.9009 7.40618 16.9669 7.40949 14.9518C7.41279 12.9365 8.21714 11.0052 9.64573 9.58346C11.0741 8.16195 13.0091 7.36669 15.0245 7.3733C17.0398 7.37964 18.9698 8.18731 20.3891 9.6179C21.8086 11.0486 22.6005 12.9848 22.5908 15.0002C22.5908 17.0132 21.7913 18.944 20.3678 20.3678C18.944 21.7913 17.0132 22.5908 15.0002 22.5908V22.5547Z" fill="black"/>
</svg>
