<svg width="42" height="29" viewBox="0 0 42 29" fill="none" xmlns="http://www.w3.org/2000/svg">
<path fill-rule="evenodd" clip-rule="evenodd" d="M9.70428 0C13.04 0 15.7503 2.74236 15.7503 6.11006C15.7503 8.5125 14.371 10.5937 12.3692 11.5896C16.0824 12.6611 18.8901 15.9139 19.3433 19.883C21.0602 17.9102 23.3559 16.4637 25.9617 15.8153C23.0851 14.5896 21.064 11.7131 21.064 8.36913C21.064 3.9158 24.6485 0.291399 29.0634 0.291399C33.4739 0.291399 37.0581 3.91606 37.0581 8.36913C37.0581 11.7131 35.0369 14.5896 32.1628 15.8153C37.8051 17.2194 42 22.3684 42 28.4998C42.0017 28.6319 41.9512 28.7592 41.8593 28.8531C41.7676 28.947 41.6423 29 41.5114 29C41.3806 29 41.2556 28.947 41.1636 28.8531C41.072 28.7592 41.0212 28.6319 41.0233 28.4998C41.0233 21.9828 35.9233 16.6827 29.5352 16.4326C29.3788 16.4419 29.2218 16.4474 29.063 16.4474C28.9043 16.4474 28.7469 16.4419 28.5905 16.4326C22.198 16.6827 17.1033 21.9826 17.1033 28.4998H17.103C17.1047 28.6319 17.0543 28.7592 16.9623 28.8531C16.8707 28.947 16.7453 29 16.6145 29C16.484 29 16.3586 28.947 16.2667 28.8531C16.175 28.7592 16.1243 28.6319 16.1263 28.4998C16.1263 25.7351 16.9793 23.1703 18.4333 21.0578H18.4329C18.4319 21.043 18.4312 21.0282 18.4312 21.0134C18.4312 16.2491 14.6989 12.3757 10.0216 12.2072C9.91637 12.2127 9.81042 12.2158 9.7038 12.2158C9.59718 12.2158 9.49123 12.2127 9.38596 12.2072C4.70902 12.3761 0.976724 16.2491 0.976724 21.0134C0.978768 21.1452 0.92801 21.2725 0.836369 21.3667C0.74439 21.4606 0.619367 21.5136 0.488553 21.5136C0.357739 21.5136 0.232376 21.4606 0.140737 21.3667C0.0487571 21.2725 -0.00165892 21.1452 4.16638e-05 21.0134C4.16638e-05 16.5415 2.97841 12.7621 7.03809 11.5907C5.03498 10.5948 3.65297 8.51374 3.65297 6.11086C3.65297 2.74246 6.36806 0.000800863 9.70382 0.000800863L9.70428 0ZM9.70428 0.986215C6.89658 0.986215 4.6301 3.27479 4.6301 6.11006C4.6301 8.84141 6.73263 11.0602 9.3973 11.2195C9.49916 11.216 9.60171 11.2143 9.70424 11.2143C9.80712 11.2143 9.90932 11.2164 10.0112 11.2195C12.6755 11.0602 14.7736 8.84176 14.7736 6.11006C14.7736 3.27417 12.5122 0.986215 9.70419 0.986215H9.70428ZM29.063 1.27724C25.1757 1.27724 22.0403 4.4482 22.0403 8.36866C22.0403 12.1326 24.9308 15.2052 28.6014 15.4447C28.7547 15.4392 28.9083 15.4357 29.063 15.4357C29.2173 15.4357 29.3709 15.4406 29.5239 15.4447C33.1901 15.2053 36.081 12.1327 36.081 8.36866C36.081 4.44811 32.9452 1.27724 29.063 1.27724Z" fill="black"/>
</svg>
